<svg width="680" height="680" viewBox="0 0 680 680" fill="none" xmlns="http://www.w3.org/2000/svg">
<g clip-path="url(#clip0_69_79)">
<path d="M634.419 249.837C623.158 208.122 604.271 169.128 576.834 132.359C549.397 95.673 516.24 65.417 476.363 42.746C437.41 20.569 395.653 5.977 351.16 0.206C341.927 -0.948 334.705 2.762 329.907 11.006C325.034 19.415 325.719 27.577 331.449 34.996C368.235 82.482 388.242 135.821 392.117 195.756C395.975 255.278 382.496 310.679 352.702 362.699C326.461 408.453 290.953 444.727 244.886 471.273C198.983 497.737 149.436 510.679 96.4919 510.679C79.4919 510.679 66.7389 509.938 58.2399 508.371C48.5779 507.629 41.4469 511.174 36.9869 519.171C32.1729 527.827 32.3039 535.823 38.5289 543.903C67.4659 581.496 100.797 610.679 137.458 631.62C192.768 663.277 249.141 679.188 306.717 679.188C366.619 679.188 422.596 663.607 475.202 632.856C528.096 601.776 570.017 560.226 600.413 507.628C623.349 467.892 637.512 425.27 642.92 380.092C648.327 334.834 645.565 291.223 634.419 249.837ZM563.313 483.64C536.709 529.642 500.32 565.998 454.334 592.626C408.349 619.255 359.272 632.445 306.715 632.445C254.159 632.445 204.686 618.924 158.709 592.214C137.447 579.931 120.069 566.74 105.765 553.22C164.504 551.654 218.998 535.824 269.617 505.652C320.244 475.561 360.285 434.918 389.8 383.969C419.412 332.855 434.821 277.702 435.398 218.593C435.983 159.4 422.644 104.165 394.829 53.134C416.85 60.471 436.833 69.952 454.723 80.175C538.854 128.321 590.446 215.131 600.8 303.92C607.823 364.348 595.449 428.074 563.313 483.64Z" fill="white"/>
</g>
<defs>
<clipPath id="clip0_69_79">
<rect width="679.189" height="679.189" fill="white"/>
</clipPath>
</defs>
</svg>
