<svg width="23" height="23" viewBox="0 0 23 23" fill="none" xmlns="http://www.w3.org/2000/svg">
<rect x="1" y="8.5" width="4" height="7" fill="white"/>
<circle cx="1" cy="9.5" r="1" fill="white"/>
<circle cx="1" cy="14.5" r="1" fill="white"/>
<rect y="9.5" width="1" height="5" fill="white"/>
<rect x="6" y="8.5" width="7" height="7" fill="white"/>
<path d="M6 8.5L11.5 5L12.5 4.5V4.5C12.9594 4.27028 13.5 4.60437 13.5 5.11803V14L6 8.5Z" fill="white"/>
<path d="M6 15.5L11.5 19L12.5 19.5V19.5C12.9594 19.7297 13.5 19.3956 13.5 18.882V10L6 15.5Z" fill="white"/>
<path d="M14.8941 9.52122C14.9969 9.31561 15.2071 9.18573 15.437 9.18573H15.4544C15.8356 9.18573 16.1933 9.36989 16.4148 9.68017L16.4833 9.77609C16.8247 10.2544 17.0732 10.7927 17.2157 11.3629V11.3629C17.4024 12.1095 17.4024 12.8905 17.2157 13.6371L17.2046 13.6814C17.0692 14.2231 16.8417 14.7375 16.532 15.202L16.3444 15.4834C16.1292 15.8061 15.767 16 15.3791 16V16C15.1488 16 14.9403 15.8637 14.8479 15.6527L14.768 15.4704C14.639 15.1761 14.6638 14.837 14.8342 14.5646L14.9989 14.3013C15.3263 13.7777 15.5 13.1725 15.5 12.5549V12.5549C15.5 11.8688 15.2857 11.1998 14.8871 10.6414L14.8382 10.5729C14.6682 10.3347 14.6437 10.022 14.7746 9.76029L14.8941 9.52122Z" fill="white"/>
<path d="M17.3043 7.913C17.1546 7.46384 17.4889 7 17.9624 7H17.9778C18.3138 7 18.6376 7.1255 18.8858 7.3519V7.3519C19.9227 8.29755 20.5995 9.57357 20.8008 10.9624L20.8528 11.3212C20.9504 11.9945 20.9504 12.6784 20.8528 13.3517L20.7464 14.0861C20.5776 15.2507 20.1289 16.3627 19.4443 17.3199V17.3199C19.14 17.7454 18.6475 18 18.1244 18V18C17.5712 18 17.1806 17.4581 17.3556 16.9333L17.4055 16.7836C17.4681 16.5957 17.5606 16.4193 17.6793 16.2609L18.1489 15.6349C18.7066 14.8912 19.0606 14.0148 19.176 13.0924L19.1832 13.0347C19.3831 11.4354 18.8334 9.83341 17.6937 8.69374V8.69374C17.5663 8.56633 17.4703 8.41101 17.4134 8.24007L17.3043 7.913Z" fill="white"/>
<path d="M2.40299 0L23 20.5231L20.597 23L0 2.47692L2.40299 0Z" fill="white"/>
</svg>
