<svg width="612" height="612" viewBox="0 0 612 612" fill="none" xmlns="http://www.w3.org/2000/svg">
<g clip-path="url(#clip0_69_59)">
<path d="M76.5 286.875H19.125C8.568 286.875 0 295.443 0 306C0 316.557 8.568 325.125 19.125 325.125H76.5C87.057 325.125 95.625 316.557 95.625 306C95.625 295.443 87.057 286.875 76.5 286.875ZM306 95.625C316.557 95.625 325.125 87.057 325.125 76.5V19.125C325.125 8.568 316.557 0 306 0C295.443 0 286.875 8.568 286.875 19.125V76.5C286.875 87.057 295.443 95.625 306 95.625ZM490.002 148.792L530.184 108.61C537.585 101.209 537.585 89.217 530.184 81.816C522.783 74.415 510.79 74.415 503.389 81.816L463.207 121.998C455.806 129.399 455.806 141.391 463.207 148.792C470.609 156.194 482.601 156.194 490.002 148.792ZM141.716 443.509L101.534 483.691C94.133 491.092 94.133 503.084 101.534 510.485C108.935 517.886 120.927 517.886 128.328 510.485L168.51 470.303C175.911 462.902 175.911 450.91 168.51 443.509C161.109 436.108 149.118 436.107 141.716 443.509ZM130.203 157.246C137.681 164.724 149.787 164.724 157.245 157.246C164.704 149.768 164.704 137.662 157.245 130.204L116.682 89.62C109.204 82.142 97.098 82.142 89.639 89.62C82.161 97.098 82.161 109.204 89.639 116.663L130.203 157.246ZM306 516.375C295.443 516.375 286.875 524.943 286.875 535.5V592.875C286.875 603.432 295.443 612 306 612C316.557 612 325.125 603.432 325.125 592.875V535.5C325.125 524.943 316.557 516.375 306 516.375ZM481.797 454.754C474.319 447.276 462.213 447.276 454.754 454.754C447.276 462.233 447.276 474.338 454.754 481.797L495.318 522.361C502.796 529.839 514.902 529.839 522.361 522.361C529.82 514.882 529.839 502.777 522.361 495.318L481.797 454.754ZM592.875 286.875H535.5C524.943 286.875 516.375 295.443 516.375 306C516.375 316.557 524.943 325.125 535.5 325.125H592.875C603.432 325.125 612 316.557 612 306C612 295.443 603.432 286.875 592.875 286.875ZM306 133.76C210.872 133.76 133.76 210.872 133.76 306C133.76 401.128 210.872 478.24 306 478.24C401.128 478.24 478.24 401.128 478.24 306C478.24 210.872 401.128 133.76 306 133.76ZM306 439.837C232.082 439.837 172.163 379.918 172.163 306C172.163 232.082 232.082 172.163 306 172.163C379.918 172.163 439.837 232.082 439.837 306C439.837 379.918 379.918 439.837 306 439.837Z" fill="white"/>
</g>
<defs>
<clipPath id="clip0_69_59">
<rect width="612" height="612" fill="white"/>
</clipPath>
</defs>
</svg>
