<svg width="21" height="16" viewBox="0 0 21 16" fill="none" xmlns="http://www.w3.org/2000/svg">
<rect x="1" y="4.5" width="4" height="7" fill="white"/>
<circle cx="1" cy="5.5" r="1" fill="white"/>
<circle cx="1" cy="10.5" r="1" fill="white"/>
<rect y="5.5" width="1" height="5" fill="white"/>
<rect x="6" y="4.5" width="7" height="7" fill="white"/>
<path d="M6 4.5L11.5 1L12.5 0.5C12.9594 0.270283 13.5 0.60437 13.5 1.11803V10L6 4.5Z" fill="white"/>
<path d="M6 11.5L11.5 15L12.5 15.5C12.9594 15.7297 13.5 15.3956 13.5 14.882V6L6 11.5Z" fill="white"/>
<path d="M14.8941 5.52122C14.9969 5.31561 15.2071 5.18573 15.437 5.18573H15.4544C15.8356 5.18573 16.1933 5.36989 16.4148 5.68017L16.4833 5.77609C16.8247 6.25443 17.0732 6.7927 17.2157 7.36286C17.4024 8.10946 17.4024 8.89054 17.2157 9.63714L17.2046 9.68144C17.0692 10.2231 16.8417 10.7375 16.532 11.202L16.3444 11.4834C16.1292 11.8061 15.767 12 15.3791 12C15.1488 12 14.9403 11.8637 14.8479 11.6527L14.768 11.4704C14.639 11.1761 14.6638 10.837 14.8342 10.5646L14.9989 10.3013C15.3263 9.77767 15.5 9.1725 15.5 8.55489C15.5 7.86879 15.2857 7.19983 14.8871 6.6414L14.8382 6.57288C14.6682 6.33469 14.6437 6.02204 14.7746 5.76029L14.8941 5.52122Z" fill="white"/>
<path d="M17.3043 3.913C17.1546 3.46384 17.4889 3 17.9624 3H17.9778C18.3138 3 18.6376 3.1255 18.8858 3.3519C19.9227 4.29755 20.5995 5.57357 20.8008 6.9624L20.8528 7.32123C20.9504 7.99454 20.9504 8.67839 20.8528 9.35169L20.7464 10.0861C20.5776 11.2507 20.1289 12.3627 19.4443 13.3199C19.14 13.7454 18.6475 14 18.1244 14C17.5712 14 17.1806 13.4581 17.3556 12.9333L17.4055 12.7836C17.4681 12.5957 17.5606 12.4193 17.6793 12.2609L18.1489 11.6349C18.7066 10.8912 19.0606 10.0148 19.176 9.09238L19.1832 9.03471C19.3831 7.43542 18.8334 5.83341 17.6937 4.69374C17.5663 4.56633 17.4703 4.41101 17.4134 4.24007L17.3043 3.913Z" fill="white"/>
</svg>
