<svg width="404" height="403" viewBox="0 0 404 403" fill="none" xmlns="http://www.w3.org/2000/svg">
<path d="M347.67 140.94C344.606 140.937 341.545 140.726 338.51 140.31C320.62 137.91 303.01 128.83 288.94 114.76C274.87 100.68 265.79 83.08 263.38 65.18C260.81 46.06 266.31 28.11 278.49 15.93C290.67 3.75 308.62 -1.76 327.74 0.819998C345.64 3.23 363.25 12.3 377.32 26.38C391.39 40.46 400.47 58.06 402.88 75.95C405.45 95.08 399.94 113.03 387.77 125.21C377.56 135.41 363.29 140.94 347.67 140.94ZM310.15 93.54C319.46 102.86 331.26 109.07 342.52 110.54C352.43 111.88 360.97 109.54 366.52 103.95C372.07 98.36 374.45 89.83 373.11 79.95C371.6 68.69 365.39 56.89 356.11 47.58C338 29.47 312.16 24.69 299.7 37.14C287.24 49.59 292.03 75.43 310.15 93.54Z" fill="white"/>
<path d="M133.36 355.24C130.299 355.239 127.242 355.032 124.21 354.62C106.31 352.21 88.6998 343.14 74.6298 329.06C60.5598 314.98 51.4798 297.38 49.0698 279.49C46.4998 260.36 52.0098 242.41 64.1798 230.23C66.9938 227.416 70.8103 225.835 74.7898 225.835C78.7694 225.835 82.5859 227.416 85.3998 230.23C88.2138 233.044 89.7946 236.86 89.7946 240.84C89.7946 244.82 88.2138 248.636 85.3998 251.45C79.8098 257.03 77.4698 265.57 78.7998 275.45C80.3198 286.71 86.5298 298.51 95.7998 307.82C114 326 139.79 330.75 152.25 318.3C153.634 316.867 155.289 315.725 157.119 314.938C158.949 314.152 160.917 313.739 162.909 313.721C164.901 313.704 166.876 314.083 168.719 314.838C170.563 315.592 172.237 316.706 173.646 318.114C175.054 319.522 176.168 321.197 176.922 323.041C177.676 324.884 178.056 326.859 178.039 328.851C178.021 330.843 177.608 332.811 176.821 334.641C176.035 336.471 174.892 338.126 173.46 339.51C163.25 349.72 149 355.24 133.36 355.24Z" fill="white"/>
<path d="M15.6899 403C13.4444 402.999 11.2276 402.495 9.20314 401.523C7.17868 400.551 5.39822 399.138 3.99309 397.386C2.58797 395.634 1.59404 393.59 1.08465 391.403C0.575251 389.216 0.563382 386.942 1.04992 384.75C1.30992 383.58 7.50992 355.75 16.1199 325.05C32.2799 267.45 42.0299 252.38 48.7199 245.69L278.49 15.93C279.874 14.4973 281.529 13.3546 283.359 12.5685C285.189 11.7823 287.157 11.3686 289.149 11.3512C291.141 11.3339 293.116 11.7135 294.959 12.4677C296.803 13.2219 298.477 14.3357 299.886 15.7441C301.294 17.1525 302.408 18.8272 303.162 20.6707C303.916 22.5141 304.296 24.4893 304.279 26.481C304.261 28.4727 303.848 30.441 303.061 32.2711C302.275 34.1011 301.133 35.7563 299.7 37.14L69.9399 266.91C69.0299 267.81 60.6699 277.34 44.9999 333.16C41.4899 345.67 38.3499 357.85 35.8999 367.8C45.8999 365.33 58.1099 362.19 70.6499 358.66C126.37 343.02 135.89 334.66 136.79 333.76L366.55 104C369.363 101.186 373.178 99.6047 377.156 99.6037C381.135 99.6028 384.951 101.182 387.765 103.995C390.579 106.808 392.16 110.623 392.161 114.601C392.162 118.58 390.583 122.396 387.77 125.21L158 355C151.31 361.69 136.25 371.44 78.6399 387.61C47.9899 396.21 20.1099 402.41 18.9399 402.67C17.8718 402.898 16.782 403.009 15.6899 403Z" fill="white"/>
<path d="M335.63 88.07C333.659 88.0696 331.707 87.6808 329.887 86.9258C328.066 86.1708 326.413 85.0645 325.02 83.67L320.02 78.67C317.287 75.841 315.775 72.0519 315.81 68.119C315.844 64.186 317.421 60.4238 320.203 57.6427C322.984 54.8616 326.746 53.2841 330.679 53.2499C334.612 53.2157 338.401 54.7276 341.23 57.46L346.23 62.46C348.328 64.5572 349.758 67.2297 350.337 70.1393C350.917 73.049 350.621 76.0652 349.486 78.8066C348.352 81.5479 346.43 83.8912 343.963 85.54C341.497 87.1889 338.597 88.0694 335.63 88.07Z" fill="white"/>
</svg>
