<svg width="24" height="24" viewBox="0 0 24 24" fill="none" xmlns="http://www.w3.org/2000/svg">
<path d="M21.3334 13C21.3334 17.7786 17.1462 21.6667 12 21.6667C6.85387 21.6667 2.66671 17.7786 2.66671 13C2.66671 10.27 3.5 8 5.5 6L4.5 4.33334C1.5 6.5 0.333374 9.00142 0.333374 13C0.333374 18.9735 5.56704 23.8333 12 23.8333C18.433 23.8333 23.6667 18.9735 23.6667 13C23.6667 7.0265 18.433 2.16667 12 2.16667V4.33334C17.1462 4.33334 21.3334 8.22142 21.3334 13Z" fill="white"/>
<path d="M8 3L12 1.09344e-05L12 6.5L8 3Z" fill="white"/>
</svg>
